<?xml version="1.0" encoding="UTF-8" standalone="no"?>
<!-- Created with Inkscape (http://www.inkscape.org/) -->

<svg
   width="210mm"
   height="297mm"
   viewBox="0 0 210 297"
   version="1.1"
   id="svg15171"
   xmlns="http://www.w3.org/2000/svg"
   xmlns:svg="http://www.w3.org/2000/svg">
  <defs
     id="defs15168">
    <rect
       x="-107.19875"
       y="125.09698"
       width="59.90749"
       height="87.567886"
       id="rect52705-0-9-6-08-7-02-22" />
    <rect
       x="-107.19875"
       y="125.09698"
       width="59.90749"
       height="87.567886"
       id="rect52705-0-9-6-08-7-0-1-4" />
    <rect
       x="-107.19875"
       y="125.09698"
       width="59.90749"
       height="87.567886"
       id="rect52705-0-8-8-6-9-7-77" />
  </defs>
  <g
     id="layer1">
    <rect
       style="fill:none;fill-opacity:1;stroke:#000000;stroke-width:1.13971;stroke-miterlimit:4;stroke-dasharray:none;stroke-opacity:1"
       id="rect447463-2-2-1-4"
       width="22.155861"
       height="31.981609"
       x="105.46535"
       y="196.12804"
       ry="11.07793"
       transform="rotate(7.0417853)" />
    <rect
       style="fill:none;fill-opacity:1;stroke:#000000;stroke-width:1.13971;stroke-miterlimit:4;stroke-dasharray:none;stroke-opacity:1"
       id="rect447463-2-2-2-7-8"
       width="22.155861"
       height="31.981609"
       x="134.85095"
       y="190.61322"
       ry="11.07793"
       transform="rotate(7.0417853)" />
    <path
       style="fill:none;stroke:#000000;stroke-width:16.7847;stroke-linecap:round;stroke-linejoin:miter;stroke-miterlimit:4;stroke-dasharray:none;stroke-opacity:1"
       d="m 121.21675,173.98041 c 0,0 19.50247,-0.68921 28.5278,-23.80696"
       id="path18211-4-6-0-7-8-8-1" />
    <path
       style="fill:none;stroke:#ffffff;stroke-width:15.0214;stroke-linecap:round;stroke-linejoin:miter;stroke-miterlimit:4;stroke-dasharray:none;stroke-opacity:1"
       d="m 124.41335,172.43236 c 0,0 17.16549,-0.62716 25.10933,-21.66321"
       id="path18211-4-7-5-3-5-2" />
    <g
       id="g498674-9-0-9-7-1-8"
       transform="matrix(0.07157345,0.07329322,-0.07329322,0.07157345,199.62868,512.74393)">
      <ellipse
         style="fill:#e9afaf;fill-opacity:1;stroke:none;stroke-width:19.5281;stroke-miterlimit:4;stroke-dasharray:none;stroke-opacity:1"
         id="path441045-2-8-6-2-1-7-9-6-9"
         cx="-2860.0969"
         cy="-2102.4124"
         rx="43.586681"
         ry="38.946259" />
      <ellipse
         style="fill:#e9afaf;fill-opacity:1;stroke:none;stroke-width:7.39761;stroke-miterlimit:4;stroke-dasharray:none;stroke-opacity:1"
         id="path441045-2-8-6-8-2-0-8-3-6-3"
         cx="-2916.3711"
         cy="-2132.8184"
         rx="16.511444"
         ry="14.753565" />
      <ellipse
         style="fill:#e9afaf;fill-opacity:1;stroke:none;stroke-width:7.39761;stroke-miterlimit:4;stroke-dasharray:none;stroke-opacity:1"
         id="path441045-2-8-6-8-6-4-1-5-7-2-6"
         cx="-2887.4426"
         cy="-2160.4158"
         rx="16.511444"
         ry="14.753565" />
      <ellipse
         style="fill:#e9afaf;fill-opacity:1;stroke:none;stroke-width:7.39761;stroke-miterlimit:4;stroke-dasharray:none;stroke-opacity:1"
         id="path441045-2-8-6-8-6-9-7-3-3-8-1-80"
         cx="-2849.063"
         cy="-2158.3884"
         rx="16.511444"
         ry="14.753565" />
    </g>
    <path
       style="fill:none;stroke:#000000;stroke-width:16.7847;stroke-linecap:round;stroke-linejoin:miter;stroke-miterlimit:4;stroke-dasharray:none;stroke-opacity:1"
       d="m 88.533227,176.75978 c 0,0 -19.502472,-0.68922 -28.527807,-23.80697"
       id="path18211-4-6-0-7-8-8-4-2" />
    <path
       style="fill:none;fill-opacity:1;stroke:#ffffff;stroke-width:15.0214;stroke-linecap:round;stroke-linejoin:miter;stroke-miterlimit:4;stroke-dasharray:none;stroke-opacity:1"
       d="m 85.336628,175.21173 c 0,0 -17.165496,-0.62716 -25.109333,-21.66322"
       id="path18211-4-7-5-3-5-1-10" />
    <g
       id="g498674-9-0-9-7-1-5-5"
       transform="matrix(-0.07157345,0.07329322,0.07329322,0.07157345,10.121295,515.52329)">
      <ellipse
         style="fill:#e9afaf;fill-opacity:1;stroke:none;stroke-width:19.5281;stroke-miterlimit:4;stroke-dasharray:none;stroke-opacity:1"
         id="path441045-2-8-6-2-1-7-9-6-5-1"
         cx="-2860.0969"
         cy="-2102.4124"
         rx="43.586681"
         ry="38.946259" />
      <ellipse
         style="fill:#e9afaf;fill-opacity:1;stroke:none;stroke-width:7.39761;stroke-miterlimit:4;stroke-dasharray:none;stroke-opacity:1"
         id="path441045-2-8-6-8-2-0-8-3-6-4-1"
         cx="-2916.3711"
         cy="-2132.8184"
         rx="16.511444"
         ry="14.753565" />
      <ellipse
         style="fill:#e9afaf;fill-opacity:1;stroke:none;stroke-width:7.39761;stroke-miterlimit:4;stroke-dasharray:none;stroke-opacity:1"
         id="path441045-2-8-6-8-6-4-1-5-7-2-9-0"
         cx="-2887.4426"
         cy="-2160.4158"
         rx="16.511444"
         ry="14.753565" />
      <ellipse
         style="fill:#e9afaf;fill-opacity:1;stroke:none;stroke-width:7.39761;stroke-miterlimit:4;stroke-dasharray:none;stroke-opacity:1"
         id="path441045-2-8-6-8-6-9-7-3-3-8-1-8-8"
         cx="-2849.063"
         cy="-2158.3884"
         rx="16.511444"
         ry="14.753565" />
    </g>
    <path
       style="fill:none;fill-opacity:1;stroke:#000000;stroke-width:1.47695;stroke-linecap:butt;stroke-linejoin:miter;stroke-miterlimit:4;stroke-dasharray:none;stroke-opacity:1"
       d="m 85.145913,167.33003 c 0,0 28.177027,-30.55525 40.264967,1.49025 16.07607,42.61821 -4.16209,53.95792 -4.16209,53.95792 0,0 -20.58825,13.9503 -39.139738,-4.1081 0,0 -12.475645,-9.80244 3.036861,-51.34007 z"
       id="path442306-9-6-9-5" />
    <path
       id="path225311-2-2-8-4-9-0-6-0"
       style="fill:none;fill-opacity:1;stroke:#000000;stroke-width:1.57058;stroke-miterlimit:4;stroke-dasharray:none;stroke-opacity:1"
       d="m 103.89657,173.91063 c -10.367844,0.002 -18.783511,11.13276 -18.824985,24.89865 -0.110159,1.1445 -0.167786,2.3161 -0.167786,3.50927 0,13.03603 7.728694,23.94376 16.188561,24.06491 l 3.35289,0.048 c 8.45984,0.12114 18.40682,-11.0769 18.40682,-24.11293 0,-1.06717 -0.0465,-2.11691 -0.13494,-3.14565 0.003,-0.0879 0.005,-0.17571 0.007,-0.2636 2e-5,-13.80636 -8.42941,-24.99865 -18.82765,-24.99867 z" />
    <rect
       style="fill:none;fill-opacity:1;stroke:#000000;stroke-width:2.93979;stroke-linecap:round;stroke-linejoin:round;stroke-miterlimit:4;stroke-dasharray:none;stroke-dashoffset:0;stroke-opacity:1;paint-order:stroke fill markers"
       id="rect499613-5-7-8-6"
       width="47.326759"
       height="63.41116"
       x="-117.93976"
       y="55.22979"
       ry="26.037853"
       transform="matrix(-0.96831113,-0.249747,-0.22080842,0.9753172,0,0)" />
    <rect
       style="fill:none;fill-opacity:1;stroke:#000000;stroke-width:2.93979;stroke-linecap:round;stroke-linejoin:round;stroke-miterlimit:4;stroke-dasharray:none;stroke-dashoffset:0;stroke-opacity:1;paint-order:stroke fill markers"
       id="rect499613-5-0-7-0-4"
       width="47.326759"
       height="63.411156"
       x="18.793972"
       y="122.34312"
       ry="26.037851"
       transform="matrix(0.79520359,-0.60634252,0.58239958,0.81290266,0,0)" />
    <path
       id="path225311-2-2-8-5-8-6"
       style="fill:none;fill-opacity:1;stroke:#000000;stroke-width:1.42155;stroke-miterlimit:4;stroke-dasharray:none;stroke-opacity:1"
       d="M 90.804803,69.016346 A 47.625605,39.633838 78.568514 0 0 61.364199,123.36462 c 0.204852,2.18309 0.528289,4.39491 0.978815,6.62295 4.922257,24.34264 22.938918,41.0979 40.396136,37.56791 l 15.27727,-3.08916 c 17.45721,-3.52999 27.54856,-25.96888 22.6263,-50.31152 -0.40296,-1.99276 -0.89524,-3.93357 -1.46623,-5.81769 a 47.625605,39.633838 78.568514 0 0 -0.0849,-0.49516 47.625605,39.633838 78.568514 0 0 -48.286797,-38.825604 z" />
    <path
       id="path225311-2-2-8-4-0-1-2"
       style="fill:none;fill-opacity:1;stroke:#000000;stroke-width:1.78632;stroke-miterlimit:4;stroke-dasharray:none;stroke-opacity:1"
       d="m 100.36878,114.67555 a 24.479242,24.872351 47.574615 0 0 -19.551334,29.11471 c 0.07358,1.13444 0.219917,2.28088 0.444528,3.43255 2.4539,12.58279 13.199376,20.87387 24.093046,18.58992 l 9.53334,-1.99876 c 10.89367,-2.28395 17.68815,-14.25245 15.23425,-26.83522 -0.20088,-1.03007 -0.45835,-2.03076 -0.76591,-2.99986 a 24.479242,24.872351 47.574615 0 0 -0.0405,-0.25632 24.479242,24.872351 47.574615 0 0 -28.94743,-19.04701 z" />
    <path
       style="fill:#000000;fill-opacity:1;stroke-width:1.23485"
       d="m 119.58437,94.960473 -14.97002,2.832295 a 8.0051627,8.0051627 0 0 0 4.7505,8.333382 8.0051627,8.0051627 0 0 0 10.53022,-4.15718 8.0051627,8.0051627 0 0 0 -0.31073,-7.008657 z"
       id="path50373-2-4-4-5-2-5" />
    <path
       id="path53999-1-4-2-1-2-86"
       style="fill:#ffffff;fill-opacity:1;stroke-width:0.443306"
       d="m 113.0792,100.28925 a 3.7042076,3.7042076 0 0 0 4.8728,-1.923719 3.7042076,3.7042076 0 0 0 0.26589,-2.001188 l -7.26976,1.375378 a 3.7042076,3.7042076 0 0 0 2.13107,2.549499 z" />
    <path
       style="fill:#000000;fill-opacity:1;stroke-width:1.23485"
       d="m 89.538795,101.35893 -14.970023,2.83227 a 8.0051627,8.0051627 0 0 0 4.7505,8.33339 8.0051627,8.0051627 0 0 0 10.530218,-4.15718 8.0051627,8.0051627 0 0 0 -0.310718,-7.00864 z"
       id="path50373-2-4-4-9-3-7-2" />
    <path
       id="path53999-1-4-2-6-7-5-8"
       style="fill:#ffffff;fill-opacity:1;stroke-width:0.443306"
       d="m 83.03364,106.68769 a 3.7042076,3.7042076 0 0 0 4.872793,-1.92373 3.7042076,3.7042076 0 0 0 0.265879,-2.00118 l -7.269754,1.37539 a 3.7042076,3.7042076 0 0 0 2.131059,2.54949 z" />
    <ellipse
       style="fill:#e9afaf;fill-opacity:1;stroke:none;stroke-width:1.78578;stroke-miterlimit:4;stroke-dasharray:none;stroke-opacity:1"
       id="path441045-2-8-75-0-6-4"
       cx="55.575691"
       cy="130.64722"
       rx="6.0282617"
       ry="2.3548672"
       transform="rotate(-11.431485)" />
    <ellipse
       style="fill:#e9afaf;fill-opacity:1;stroke:none;stroke-width:1.78578;stroke-miterlimit:4;stroke-dasharray:none;stroke-opacity:1"
       id="path441045-2-8-75-4-4-4-72"
       cx="95.030403"
       cy="129.98376"
       rx="6.0282617"
       ry="2.3548672"
       transform="rotate(-11.431485)" />
    <text
       xml:space="preserve"
       transform="matrix(-0.02210212,-0.50675091,0.31856963,-0.02439543,32.63803,49.740053)"
       id="text52703-2-76-4-1-1-6-4"
       style="font-style:normal;font-weight:normal;font-size:40px;line-height:1.25;font-family:sans-serif;white-space:pre;shape-inside:url(#rect52705-0-9-6-08-7-02-22);fill:#000000;fill-opacity:1;stroke:none"><tspan
         x="-107.19922"
         y="160.48828"
         id="tspan17268">)</tspan></text>
    <text
       xml:space="preserve"
       transform="matrix(-0.17652149,-0.47552618,-0.30302007,0.10129455,136.09772,29.066735)"
       id="text52703-2-76-4-1-1-9-3-0"
       style="font-style:normal;font-weight:normal;font-size:40px;line-height:1.25;font-family:sans-serif;white-space:pre;shape-inside:url(#rect52705-0-9-6-08-7-0-1-4);fill:#000000;fill-opacity:1;stroke:none"><tspan
         x="-107.19922"
         y="160.48828"
         id="tspan17270">)</tspan></text>
    <path
       id="path50373-2-4-4-9-3-8-9-6"
       style="fill:none;fill-opacity:1;stroke:#000000;stroke-width:2.2935;stroke-miterlimit:4;stroke-dasharray:none;stroke-opacity:1"
       d="m 137.21849,95.131166 -79.172142,16.009174 1.404305,6.94476 0.108431,-0.022 a 18.578799,18.578799 0 0 0 10.527402,12.24216 18.578799,18.578799 0 0 0 24.439107,-9.64821 18.578799,18.578799 0 0 0 1.358939,-9.93923 l 6.486308,-1.31153 a 18.578799,18.578799 0 0 0 5.14394,8.75449 18.578799,18.578799 0 0 0 26.26769,-0.60507 18.578799,18.578799 0 0 0 4.21028,-18.595742 z" />
    <rect
       style="fill:#ffffff;fill-opacity:1;stroke:none;stroke-width:13.1216;stroke-linecap:round;stroke-linejoin:round;stroke-miterlimit:4;stroke-dasharray:none;stroke-opacity:1;paint-order:stroke fill markers"
       id="rect174920-9-2"
       width="11.126741"
       height="8.6958275"
       x="54.637703"
       y="126.96598"
       ry="4.0114298"
       transform="rotate(-11.431485)" />
    <rect
       style="fill:#ffffff;fill-opacity:1;stroke:none;stroke-width:13.1216;stroke-linecap:round;stroke-linejoin:round;stroke-miterlimit:4;stroke-dasharray:none;stroke-opacity:1;paint-order:stroke fill markers"
       id="rect174920-4-1-9"
       width="11.126741"
       height="8.6958275"
       x="101.77803"
       y="125.68071"
       ry="4.0114298"
       transform="rotate(-11.431485)" />
    <g
       id="g175179-7-9"
       transform="matrix(0.11220367,-0.0226884,0.0226884,0.11220367,-139.63221,515.08812)">
      <rect
         style="fill:#000000;fill-opacity:1;stroke:none;stroke-width:5.24075;stroke-miterlimit:4;stroke-dasharray:none;stroke-opacity:1"
         id="rect186991-8-1-4-9-0-0"
         width="155.33075"
         height="24.276985"
         x="-2876.1938"
         y="-2764.7395"
         ry="0"
         transform="rotate(90)" />
      <path
         id="path89405-7-3-6-8"
         style="fill:#c83737;fill-opacity:1;stroke:none;stroke-width:2.72388;stroke-opacity:1"
         d="m 2861.5209,-2735.5345 c -97.0802,5.9281 -108.2691,35.1814 -119.2902,34.8555 3.1328,8.1994 10.725,31.6539 15.7808,39.2967 27.0909,40.844 69.5658,45.411 99.095,29.1852 29.5291,-16.2268 55.237,-66.1867 28.1454,-107.0315 -15.7441,-9.8929 -22.6526,5.1738 -23.731,3.6941 z" />
      <path
         style="fill:#000000;stroke:#000000;stroke-width:22.9861;stroke-linecap:butt;stroke-linejoin:miter;stroke-miterlimit:4;stroke-dasharray:none;stroke-opacity:1"
         d="m 2829.9098,-2967.3459 -168.0513,-0.2686 91.419,91.4191 z"
         id="path189309-2-9-8-9-0-1" />
      <text
         xml:space="preserve"
         transform="matrix(0,8.6974005,-8.6974005,0,4037.1698,-1869.5323)"
         id="text52703-2-7-8-0-0-8-3"
         style="font-style:normal;font-weight:normal;font-size:40px;line-height:1.25;font-family:sans-serif;white-space:pre;shape-inside:url(#rect52705-0-8-8-6-9-7-77);fill:#000000;fill-opacity:1;stroke:none"><tspan
           x="-107.19922"
           y="160.48828"
           id="tspan17272">)</tspan></text>
    </g>
    <path
       style="opacity:0.0922852;fill:none;stroke:none;stroke-width:0.030288px;stroke-linecap:butt;stroke-linejoin:miter;stroke-opacity:1"
       d="m 77.439645,193.19079 c 0,0 29.809695,13.65353 51.125635,-5.76312 0,0 -32.110367,38.35922 -51.125635,5.76312 z"
       id="path191566-1-4" />
  </g>
</svg>
